#!OML:ASF G:\JayActor3\Patient Classification 1\Patient 1\Session 5\male.ASF
:FULLY-SPECIFIED
:DEGREES
636
root -1.95594 14.2455 -5.65327 -173.713 88.6169 -186.532
lowerback 38.129 -1.86519 1.11793
upperback 7.9844 -0.910739 -0.566873
thorax -9.88014 -0.00420962 -0.896488
lowerneck -5.91151 -0.673905 1.05923
upperneck -11.1522 -0.471155 2.10068
head -2.51776 -0.18572 0.484504
rclavicle -2.96189e-014 -4.39314e-014
rhumerus -19.9784 4.20715 -85.8648
rradius 43.5644
rwrist -5.60448
rhand -21.107 -9.0205
rfingers 7.12502
rthumb 5.27108 -38.9349
lclavicle -2.96189e-014 -4.39314e-014
lhumerus -22.8808 -8.28838 81.9988
lradius 44.0239
lwrist 24.1914
lhand -18.6373 11.588
lfingers 7.12502
lthumb 7.65521 41.4294
rfemur -73.3228 -7.24069 23.0224
rtibia 102.371
rfoot -15.7716 -8.71673
rtoes -3.23573
lfemur -60.9428 -0.121723 -27.9111
ltibia 74.8585
lfoot -26.8152 12.7774
ltoes -1.83639
637
root -1.83296 14.235 -5.66739 -175.38 88.6691 -188.156
lowerback 38.1979 -1.86538 1.09849
upperback 7.98445 -0.91625 -0.573121
thorax -9.90359 -0.00557661 -0.89051
lowerneck -5.87288 -0.674615 1.05504
upperneck -11.2352 -0.465129 2.12685
head -2.55244 -0.183163 0.494103
rclavicle -2.25621e-014 -3.926e-014
rhumerus -20.032 4.26522 -85.9081
rradius 43.6241
rwrist -5.57757
rhand -21.1262 -9.01153
rfingers 7.12502
rthumb 5.2525 -38.9264
lclavicle -2.25621e-014 -3.926e-014
lhumerus -22.8812 -8.29437 82.0315
lradius 44.0374
lwrist 24.259
lhand -18.5798 11.5989
lfingers 7.12502
lthumb 7.71069 41.4383
rfemur -74.2327 -7.04821 23.2294
rtibia 100.809
rfoot -16.5594 -8.83342
rtoes -4.22123
lfemur -60.5248 -0.0276027 -28.0277
ltibia 75.2234
lfoot -27.3921 12.8042
ltoes -2.14366
638
root -1.71008 14.2276 -5.68084 -177.062 88.7244 -189.79
lowerback 38.2635 -1.86174 1.07839
upperback 7.98823 -0.916919 -0.578418
thorax -9.92155 -0.00458318 -0.885168
lowerneck -5.83746 -0.675997 1.0468
upperneck -11.3017 -0.460882 2.15254
head -2.581 -0.181424 0.504158
rclavicle 9.24349e-015 2.13694e-014
rhumerus -20.083 4.32189 -85.9519
rradius 43.6696
rwrist -5.55482
rhand -21.1457 -9.00597
rfingers 7.12502
rthumb 5.23367 -38.9213
lclavicle 9.24349e-015 2.13694e-014
lhumerus -22.8691 -8.30645 82.0737
lradius 44.0392
lwrist 24.3337
lhand -18.5187 11.6048
lfingers 7.12502
lthumb 7.76974 41.442
rfemur -75.0484 -6.85993 23.4436
rtibia 99.0821
rfoot -17.2572 -9.00022
rtoes -5.10796
lfemur -60.0737 0.110908 -28.1432
ltibia 75.533
lfoot -27.9335 12.771
ltoes -2.46554
639
root -1.5879 14.2254 -5.69396 -178.803 88.7823 -191.489
lowerback 38.3181 -1.857 1.06306
upperback 7.99222 -0.915251 -0.585673
thorax -9.93553 -0.00274214 -0.885403
lowerneck -5.80731 -0.676879 1.03956
upperneck -11.3445 -0.458008 2.17095
head -2.60069 -0.18036 0.511594
rclavicle 1.46107e-014 1.54058e-015
rhumerus -20.1321 4.37779 -85.9995
rradius 43.6966
rwrist -5.53694
rhand -21.1756 -8.98861
rfingers 7.12502
rthumb 5.20485 -38.9047
lclavicle 1.46107e-014 1.54058e-015
lhumerus -22.8522 -8.3285 82.1216
lradius 44.0335
lwrist 24.408
lhand -18.4662 11.6315
lfingers 7.12502
lthumb 7.82042 41.4669
rfemur -75.7605 -6.67355 23.656
rtibia 97.1813
rfoot -17.8831 -9.21411
rtoes -5.90075
lfemur -59.5829 0.275806 -28.2534
ltibia 75.7623
lfoot -28.4289 12.6937
ltoes -2.80299
640
root -1.46687 14.231 -5.70684 -180.826 88.8424 -193.48
lowerback 38.3526 -1.85016 1.04567
upperback 7.9973 -0.912836 -0.59372
thorax -9.94142 -0.000767672 -0.885778
lowerneck -5.78994 -0.674689 1.03355
upperneck -11.3596 -0.453646 2.17732
head -2.60884 -0.17833 0.514776
rclavicle 1.12313e-014 2.36057e-014
rhumerus -20.1714 4.43828 -86.0494
rradius 43.7016
rwrist -5.52621
rhand -21.2144 -8.9663
rfingers 7.12502
rthumb 5.16732 -38.8833
lclavicle 1.12313e-014 2.36057e-014
lhumerus -22.8265 -8.34841 82.1744
lradius 44.0119
lwrist 24.4753
lhand -18.4214 11.6392
lfingers 7.12502
lthumb 7.86367 41.4729
rfemur -76.3566 -6.48605 23.856
rtibia 95.105
rfoot -18.4515 -9.48181
rtoes -6.60936
lfemur -59.0467 0.450368 -28.3572
ltibia 75.9022
lfoot -28.8835 12.5921
ltoes -3.15507
641
root -1.34711 14.2429 -5.71942 -183.189 88.9022 -195.83
lowerback 38.3567 -1.84159 1.0315
upperback 8.00247 -0.908949 -0.604715
thorax -9.93695 0.00141468 -0.891685
lowerneck -5.77669 -0.671463 1.03125
upperneck -11.354 -0.450295 2.17137
head -2.60928 -0.176767 0.513282
rclavicle 9.44227e-015 -1.09332e-015
rhumerus -20.2023 4.49273 -86.1018
rradius 43.6865
rwrist -5.51783
rhand -21.2473 -8.96139
rfingers 7.12502
rthumb 5.1356 -38.8792
lclavicle 9.44227e-015 -1.09332e-015
lhumerus -22.7975 -8.37697 82.2299
lradius 43.9813
lwrist 24.5347
lhand -18.3916 11.6556
lfingers 7.12502
lthumb 7.89238 41.4883
rfemur -76.8545 -6.29855 24.0372
rtibia 92.8755
rfoot -18.9783 -9.79895
rtoes -7.23855
lfemur -58.4877 0.630466 -28.4558
ltibia 75.9706
lfoot -29.3019 12.46
ltoes -3.4826
642
root -1.22747 14.2555 -5.73099 -185.711 88.9512 -198.351
lowerback 38.3402 -1.83745 1.02264
upperback 8.00811 -0.909501 -0.616704
thorax -9.92512 0.00127508 -0.899689
lowerneck -5.77342 -0.665482 1.03159
upperneck -11.329 -0.445464 2.15298
head -2.60146 -0.174263 0.50722
rclavicle -1.86858e-014 -1.56046e-014
rhumerus -20.2238 4.54699 -86.1587
rradius 43.6469
rwrist -5.49125
rhand -21.2802 -8.95614
rfingers 7.12502
rthumb 5.10383 -38.8747
lclavicle -1.86858e-014 -1.56046e-014
lhumerus -22.7676 -8.40474 82.2859
lradius 43.9422
lwrist 24.5805
lhand -18.3712 11.6455
lfingers 7.12502
lthumb 7.91205 41.4774
rfemur -77.2795 -6.11909 24.2018
rtibia 90.5441
rfoot -19.4798 -10.1674
rtoes -7.72818
lfemur -57.9338 0.835034 -28.554
ltibia 76.0139
lfoot -29.6869 12.2924
ltoes -3.82733
